<svg width="239" height="50" viewBox="0 0 239 50" fill="none" xmlns="http://www.w3.org/2000/svg">
<g clip-path="url(#clip0_136_4002)">
<path d="M96.0663 49.7221C95.6541 49.9102 95.1792 50.0088 94.6416 50.0088C94.1488 50.0088 93.7007 49.9282 93.2796 49.7669C92.8584 49.6056 92.509 49.3816 92.2043 49.0859C91.8996 48.7902 91.6577 48.4317 91.4875 48.0196C91.3172 47.6074 91.2276 47.1504 91.2276 46.6576C91.2276 46.1647 91.3172 45.6898 91.4875 45.2776C91.6577 44.8654 91.9086 44.516 92.2133 44.2292C92.5179 43.9425 92.8853 43.7185 93.3065 43.5572C93.7276 43.4049 94.1756 43.3242 94.6595 43.3242C95.1075 43.3242 95.5466 43.4049 95.9767 43.5572C96.4068 43.7095 96.7652 43.9425 97.0251 44.2472L95.9857 45.2866C95.8423 45.0895 95.6541 44.9461 95.4211 44.8475C95.1882 44.749 94.9462 44.7041 94.7043 44.7041C94.4355 44.7041 94.1846 44.749 93.9606 44.8565C93.7366 44.955 93.5394 45.0895 93.3781 45.2687C93.2168 45.4389 93.0914 45.645 93.0018 45.878C92.9122 46.111 92.8674 46.3708 92.8674 46.6576C92.8674 46.9443 92.9122 47.2041 93.0018 47.4461C93.0914 47.688 93.2168 47.8941 93.3781 48.0554C93.5394 48.2257 93.7276 48.3601 93.9427 48.4586C94.1577 48.5572 94.4086 48.602 94.6685 48.602C94.9731 48.602 95.2419 48.5393 95.466 48.4228C95.69 48.3063 95.8781 48.145 96.0125 47.9568L97.0789 48.9604C96.8011 49.283 96.4516 49.5429 96.0394 49.731L96.0663 49.7221Z" fill="#818C97"/>
<path d="M104.713 46.6308C104.713 47.1326 104.624 47.5896 104.453 48.0108C104.283 48.423 104.041 48.7814 103.737 49.0771C103.432 49.3728 103.065 49.5968 102.643 49.7581C102.222 49.9194 101.756 50 101.263 50C100.771 50 100.305 49.9194 99.8835 49.7581C99.4624 49.5968 99.095 49.3728 98.7903 49.0771C98.4857 48.7814 98.2438 48.423 98.0645 48.0108C97.8943 47.5986 97.8047 47.1416 97.8047 46.6308C97.8047 46.1201 97.8943 45.6631 98.0645 45.2509C98.2348 44.8387 98.4767 44.4982 98.7903 44.2115C99.095 43.9247 99.4624 43.7007 99.8835 43.5484C100.305 43.3961 100.762 43.3154 101.263 43.3154C101.765 43.3154 102.222 43.3961 102.643 43.5484C103.065 43.7007 103.432 43.9247 103.737 44.2115C104.041 44.4982 104.283 44.8477 104.453 45.2509C104.624 45.6631 104.713 46.1201 104.713 46.6308ZM103.074 46.6308C103.074 46.3531 103.029 46.1022 102.939 45.8602C102.849 45.6183 102.724 45.4122 102.563 45.242C102.401 45.0717 102.213 44.9373 101.989 44.8387C101.765 44.7402 101.514 44.6864 101.246 44.6864C100.977 44.6864 100.735 44.7402 100.511 44.8387C100.287 44.9373 100.099 45.0717 99.9373 45.242C99.776 45.4122 99.6506 45.6183 99.561 45.8602C99.4714 46.1022 99.4265 46.3531 99.4265 46.6308C99.4265 46.9086 99.4714 47.1864 99.561 47.4283C99.6506 47.6703 99.776 47.8764 99.9373 48.0466C100.099 48.2169 100.287 48.3602 100.502 48.4588C100.726 48.5574 100.968 48.6111 101.237 48.6111C101.505 48.6111 101.747 48.5663 101.971 48.4588C102.195 48.3602 102.384 48.2258 102.545 48.0466C102.706 47.8764 102.832 47.6703 102.921 47.4283C103.011 47.1864 103.056 46.9176 103.056 46.6308H103.074Z" fill="#818C97"/>
<path d="M111.927 49.8298L111.962 45.3406H111.935L110.287 49.8298H109.211L107.608 45.3406H107.581L107.616 49.8298H106.174V43.4857H108.351L109.794 47.5538H109.83L111.21 43.4857H113.423V49.8298H111.918H111.927Z" fill="#818C97"/>
<path d="M120.932 49.8298L120.968 45.3406H120.941L119.292 49.8298H118.217L116.613 45.3406H116.586L116.622 49.8298H115.179V43.4857H117.357L118.799 47.5538H118.835L120.215 43.4857H122.428V49.8298H120.923H120.932Z" fill="#818C97"/>
<path d="M124.185 49.8298V43.4857H128.45V44.776H125.663V45.9768H128.297V47.2044H125.663V48.5216H128.611V49.8298H124.185Z" fill="#818C97"/>
<path d="M133.468 49.8298L132.088 47.3119H131.568V49.8298H130.072V43.4857H132.491C132.796 43.4857 133.091 43.5216 133.387 43.5843C133.674 43.647 133.934 43.7545 134.167 43.8979C134.4 44.0502 134.579 44.2474 134.722 44.4893C134.866 44.7312 134.928 45.0359 134.928 45.4033C134.928 45.8334 134.812 46.1918 134.579 46.4875C134.346 46.7832 134.023 46.9893 133.611 47.1148L135.269 49.8298H133.477H133.468ZM133.405 45.4302C133.405 45.2778 133.369 45.1613 133.306 45.0628C133.244 44.9732 133.163 44.9015 133.064 44.8477C132.966 44.794 132.858 44.7581 132.733 44.7402C132.607 44.7223 132.491 44.7133 132.375 44.7133H131.55V46.1918H132.276C132.401 46.1918 132.527 46.1829 132.661 46.156C132.796 46.1291 132.912 46.0932 133.02 46.0484C133.127 45.9947 133.217 45.914 133.288 45.8155C133.36 45.7169 133.396 45.5825 133.396 45.4212L133.405 45.4302Z" fill="#818C97"/>
<path d="M141.004 49.7222C140.591 49.9104 140.116 50.0089 139.579 50.0089C139.086 50.0089 138.638 49.9283 138.226 49.767C137.814 49.6057 137.446 49.3817 137.142 49.086C136.837 48.7903 136.595 48.4319 136.425 48.0197C136.254 47.6075 136.165 47.1505 136.165 46.6577C136.165 46.1648 136.254 45.6899 136.425 45.2777C136.604 44.8656 136.846 44.5161 137.151 44.2294C137.455 43.9426 137.823 43.7186 138.244 43.5573C138.665 43.405 139.113 43.3243 139.597 43.3243C140.045 43.3243 140.484 43.405 140.914 43.5573C141.344 43.7096 141.702 43.9426 141.962 44.2473L140.923 45.2867C140.78 45.0896 140.591 44.9462 140.358 44.8476C140.125 44.7491 139.883 44.7043 139.642 44.7043C139.373 44.7043 139.122 44.7491 138.898 44.8566C138.674 44.9552 138.486 45.0896 138.324 45.2688C138.163 45.448 138.038 45.6451 137.948 45.8781C137.858 46.1111 137.814 46.3709 137.814 46.6577C137.814 46.9444 137.858 47.2043 137.948 47.4462C138.038 47.6881 138.163 47.8942 138.324 48.0555C138.486 48.2258 138.674 48.3602 138.889 48.4588C139.104 48.5573 139.355 48.6021 139.615 48.6021C139.919 48.6021 140.188 48.5394 140.412 48.4229C140.636 48.3064 140.824 48.1451 140.959 47.957L142.025 48.9605C141.747 49.2831 141.398 49.543 140.986 49.7312L141.004 49.7222Z" fill="#818C97"/>
<path d="M143.145 49.8298V43.4857H144.686V49.8298H143.145Z" fill="#818C97"/>
<path d="M150.744 49.8298L150.251 48.5843H147.796L147.33 49.8298H145.663L148.324 43.4857H149.812L152.446 49.8298H150.744ZM149.041 45.1793L148.235 47.3567H149.83L149.041 45.1793Z" fill="#818C97"/>
<path d="M153.423 49.8298V43.4857H154.964V48.4947H157.419V49.8298H153.423Z" fill="#818C97"/>
<path d="M165.197 49.8298L164.704 48.5843H162.249L161.783 49.8298H160.116L162.778 43.4857H164.265L166.9 49.8298H165.197ZM163.495 45.1793L162.688 47.3567H164.283L163.495 45.1793Z" fill="#818C97"/>
<path d="M171.228 45.1344C171.093 44.9641 170.923 44.8387 170.708 44.7401C170.493 44.6416 170.296 44.5878 170.099 44.5878C170 44.5878 169.892 44.5878 169.794 44.6147C169.686 44.6326 169.597 44.6685 169.507 44.7222C169.427 44.776 169.355 44.8387 169.301 44.9193C169.247 45 169.211 45.1075 169.211 45.233C169.211 45.3405 169.238 45.4301 169.283 45.5018C169.328 45.5735 169.391 45.6362 169.48 45.69C169.57 45.7437 169.668 45.7975 169.794 45.8423C169.91 45.8871 170.045 45.9319 170.197 45.9857C170.412 46.0573 170.636 46.138 170.869 46.2186C171.102 46.3082 171.317 46.4158 171.505 46.5591C171.694 46.7025 171.855 46.8817 171.98 47.0878C172.106 47.3029 172.168 47.5627 172.168 47.8853C172.168 48.2527 172.097 48.5663 171.971 48.8262C171.837 49.095 171.658 49.31 171.425 49.4892C171.201 49.6595 170.941 49.7939 170.645 49.8745C170.349 49.9552 170.054 50 169.74 50C169.283 50 168.844 49.9193 168.423 49.767C168.002 49.6147 167.643 49.3817 167.366 49.095L168.369 48.0735C168.522 48.2616 168.728 48.4229 168.987 48.5573C169.238 48.6828 169.489 48.7455 169.74 48.7455C169.857 48.7455 169.964 48.7366 170.072 48.7097C170.179 48.6828 170.269 48.6469 170.358 48.5932C170.439 48.5394 170.502 48.4677 170.547 48.3781C170.591 48.2885 170.618 48.181 170.618 48.0555C170.618 47.9301 170.591 47.8315 170.529 47.7509C170.466 47.6702 170.385 47.5896 170.269 47.5269C170.161 47.4552 170.018 47.3925 169.857 47.3387C169.695 47.2849 169.507 47.2222 169.301 47.1505C169.095 47.0878 168.898 47.0072 168.701 46.9176C168.504 46.8279 168.333 46.7115 168.181 46.5681C168.029 46.4247 167.903 46.2545 167.814 46.0573C167.724 45.8602 167.67 45.6093 167.67 45.3226C167.67 44.9731 167.742 44.6685 167.885 44.4176C168.029 44.1667 168.217 43.9606 168.45 43.7993C168.683 43.638 168.943 43.5215 169.238 43.4498C169.534 43.3781 169.83 43.3423 170.125 43.3423C170.484 43.3423 170.851 43.405 171.219 43.5394C171.586 43.6738 171.918 43.862 172.195 44.1219L171.219 45.1523L171.228 45.1344Z" fill="#818C97"/>
<path d="M176.971 45.1344C176.837 44.9641 176.667 44.8387 176.452 44.7401C176.237 44.6416 176.039 44.5878 175.842 44.5878C175.744 44.5878 175.636 44.5878 175.538 44.6147C175.43 44.6326 175.34 44.6685 175.251 44.7222C175.17 44.776 175.099 44.8387 175.045 44.9193C174.991 45 174.955 45.1075 174.955 45.233C174.955 45.3405 174.982 45.4301 175.027 45.5018C175.072 45.5735 175.134 45.6362 175.224 45.69C175.314 45.7437 175.412 45.7975 175.538 45.8423C175.654 45.8871 175.789 45.9319 175.941 45.9857C176.156 46.0573 176.38 46.138 176.613 46.2186C176.846 46.3082 177.061 46.4158 177.249 46.5591C177.437 46.7025 177.599 46.8817 177.724 47.0878C177.849 47.3029 177.912 47.5627 177.912 47.8853C177.912 48.2527 177.84 48.5663 177.715 48.8262C177.581 49.095 177.401 49.31 177.168 49.4892C176.944 49.6595 176.685 49.7939 176.389 49.8745C176.093 49.9552 175.797 50 175.484 50C175.027 50 174.588 49.9193 174.167 49.767C173.746 49.6147 173.387 49.3817 173.109 49.095L174.113 48.0735C174.265 48.2616 174.471 48.4229 174.731 48.5573C174.982 48.6828 175.233 48.7455 175.484 48.7455C175.6 48.7455 175.708 48.7366 175.815 48.7097C175.923 48.6828 176.013 48.6469 176.102 48.5932C176.183 48.5394 176.246 48.4677 176.29 48.3781C176.335 48.2885 176.362 48.181 176.362 48.0555C176.362 47.9301 176.335 47.8315 176.272 47.7509C176.21 47.6702 176.129 47.5896 176.013 47.5269C175.905 47.4552 175.762 47.3925 175.6 47.3387C175.439 47.2849 175.251 47.2222 175.045 47.1505C174.839 47.0878 174.642 47.0072 174.444 46.9176C174.247 46.8279 174.077 46.7115 173.925 46.5681C173.772 46.4247 173.647 46.2545 173.557 46.0573C173.468 45.8602 173.414 45.6093 173.414 45.3226C173.414 44.9731 173.486 44.6685 173.629 44.4176C173.772 44.1667 173.961 43.9606 174.194 43.7993C174.427 43.638 174.686 43.5215 174.982 43.4498C175.278 43.3781 175.573 43.3423 175.869 43.3423C176.228 43.3423 176.595 43.405 176.962 43.5394C177.33 43.6738 177.661 43.862 177.939 44.1219L176.962 45.1523L176.971 45.1344Z" fill="#818C97"/>
<path d="M179.364 49.8298V43.4857H183.629V44.776H180.842V45.9768H183.477V47.2044H180.842V48.5216H183.79V49.8298H179.364Z" fill="#818C97"/>
<path d="M187.966 44.794V49.8298H186.434V44.794H184.642V43.4857H189.758V44.794H187.966Z" fill="#818C97"/>
<path d="M196.729 45.1344C196.595 44.9641 196.425 44.8387 196.21 44.7401C195.995 44.6416 195.797 44.5878 195.6 44.5878C195.502 44.5878 195.394 44.5878 195.296 44.6147C195.188 44.6326 195.099 44.6685 195.009 44.7222C194.928 44.776 194.857 44.8387 194.803 44.9193C194.749 45 194.713 45.1075 194.713 45.233C194.713 45.3405 194.74 45.4301 194.785 45.5018C194.83 45.5735 194.892 45.6362 194.982 45.69C195.072 45.7437 195.17 45.7975 195.296 45.8423C195.412 45.8871 195.547 45.9319 195.699 45.9857C195.914 46.0573 196.138 46.138 196.371 46.2186C196.604 46.3082 196.819 46.4158 197.007 46.5591C197.195 46.7025 197.357 46.8817 197.482 47.0878C197.608 47.3029 197.67 47.5627 197.67 47.8853C197.67 48.2527 197.599 48.5663 197.473 48.8262C197.339 49.095 197.159 49.31 196.927 49.4892C196.702 49.6595 196.443 49.7939 196.147 49.8745C195.851 49.9552 195.556 50 195.242 50C194.785 50 194.346 49.9193 193.925 49.767C193.504 49.6147 193.145 49.3817 192.867 49.095L193.871 48.0735C194.023 48.2616 194.229 48.4229 194.489 48.5573C194.74 48.6828 194.991 48.7455 195.242 48.7455C195.358 48.7455 195.466 48.7366 195.573 48.7097C195.681 48.6828 195.771 48.6469 195.86 48.5932C195.941 48.5394 196.004 48.4677 196.048 48.3781C196.093 48.2885 196.12 48.181 196.12 48.0555C196.12 47.9301 196.093 47.8315 196.03 47.7509C195.968 47.6702 195.887 47.5896 195.771 47.5269C195.663 47.4552 195.52 47.3925 195.358 47.3387C195.197 47.2849 195.009 47.2222 194.803 47.1505C194.597 47.0878 194.4 47.0072 194.202 46.9176C194.005 46.8279 193.835 46.7115 193.683 46.5681C193.53 46.4247 193.405 46.2545 193.315 46.0573C193.226 45.8602 193.172 45.6093 193.172 45.3226C193.172 44.9731 193.244 44.6685 193.387 44.4176C193.53 44.1667 193.719 43.9606 193.952 43.7993C194.185 43.638 194.444 43.5215 194.74 43.4498C195.036 43.3781 195.332 43.3423 195.627 43.3423C195.986 43.3423 196.353 43.405 196.72 43.5394C197.088 43.6738 197.419 43.862 197.697 44.1219L196.72 45.1523L196.729 45.1344Z" fill="#818C97"/>
<path d="M199.122 49.8298V43.4857H203.387V44.776H200.6V45.9768H203.235V47.2044H200.6V48.5216H203.548V49.8298H199.122Z" fill="#818C97"/>
<path d="M208.405 49.8298L207.025 47.3119H206.505V49.8298H205.009V43.4857H207.428C207.733 43.4857 208.029 43.5216 208.324 43.5843C208.611 43.647 208.871 43.7545 209.104 43.8979C209.337 44.0502 209.516 44.2474 209.66 44.4893C209.803 44.7312 209.866 45.0359 209.866 45.4033C209.866 45.8334 209.749 46.1918 209.516 46.4875C209.283 46.7832 208.961 46.9893 208.548 47.1148L210.206 49.8298H208.414H208.405ZM208.342 45.4302C208.342 45.2778 208.306 45.1613 208.244 45.0628C208.181 44.9732 208.1 44.9015 208.002 44.8477C207.903 44.794 207.796 44.7581 207.67 44.7402C207.545 44.7223 207.428 44.7133 207.312 44.7133H206.487V46.1918H207.213C207.339 46.1918 207.464 46.1829 207.599 46.156C207.733 46.1291 207.849 46.0932 207.957 46.0484C208.065 45.9947 208.154 45.914 208.226 45.8155C208.298 45.7169 208.333 45.5825 208.333 45.4212L208.342 45.4302Z" fill="#818C97"/>
<path d="M214.435 49.8298H212.903L210.502 43.4857H212.222L213.692 47.9839H213.728L215.188 43.4857H216.882L214.435 49.8298Z" fill="#818C97"/>
<path d="M217.849 49.8298V43.4857H219.391V49.8298H217.849Z" fill="#818C97"/>
<path d="M225.69 49.7222C225.278 49.9104 224.803 50.0089 224.265 50.0089C223.772 50.0089 223.324 49.9283 222.912 49.767C222.5 49.6057 222.133 49.3817 221.828 49.086C221.523 48.7903 221.281 48.4319 221.111 48.0197C220.941 47.6075 220.851 47.1505 220.851 46.6577C220.851 46.1648 220.941 45.6899 221.111 45.2777C221.29 44.8656 221.532 44.5161 221.837 44.2294C222.142 43.9426 222.509 43.7186 222.93 43.5573C223.351 43.405 223.799 43.3243 224.283 43.3243C224.731 43.3243 225.17 43.405 225.6 43.5573C226.03 43.7096 226.389 43.9426 226.649 44.2473L225.609 45.2867C225.466 45.0896 225.278 44.9462 225.045 44.8476C224.812 44.7491 224.57 44.7043 224.328 44.7043C224.059 44.7043 223.808 44.7491 223.584 44.8566C223.36 44.9552 223.172 45.0896 223.011 45.2688C222.849 45.448 222.724 45.6451 222.634 45.8781C222.545 46.1111 222.5 46.3709 222.5 46.6577C222.5 46.9444 222.545 47.2043 222.634 47.4462C222.724 47.6881 222.849 47.8942 223.011 48.0555C223.172 48.2258 223.36 48.3602 223.575 48.4588C223.79 48.5573 224.041 48.6021 224.301 48.6021C224.606 48.6021 224.875 48.5394 225.099 48.4229C225.323 48.3064 225.511 48.1451 225.645 47.957L226.711 48.9605C226.434 49.2831 226.084 49.543 225.672 49.7312L225.69 49.7222Z" fill="#818C97"/>
<path d="M227.832 49.8298V43.4857H232.097V44.776H229.31V45.9768H231.944V47.2044H229.31V48.5216H232.258V49.8298H227.832Z" fill="#818C97"/>
<path d="M237.07 45.1344C236.935 44.9641 236.765 44.8387 236.55 44.7401C236.335 44.6416 236.138 44.5878 235.941 44.5878C235.842 44.5878 235.735 44.5878 235.636 44.6147C235.529 44.6326 235.439 44.6685 235.349 44.7222C235.269 44.776 235.197 44.8387 235.143 44.9193C235.09 45 235.054 45.1075 235.054 45.233C235.054 45.3405 235.081 45.4301 235.125 45.5018C235.17 45.5735 235.233 45.6362 235.323 45.69C235.412 45.7437 235.511 45.7975 235.636 45.8423C235.753 45.8871 235.887 45.9319 236.039 45.9857C236.254 46.0573 236.478 46.138 236.711 46.2186C236.944 46.3082 237.159 46.4158 237.348 46.5591C237.536 46.7025 237.697 46.8817 237.823 47.0878C237.948 47.3029 238.011 47.5627 238.011 47.8853C238.011 48.2527 237.939 48.5663 237.814 48.8262C237.679 49.095 237.5 49.31 237.267 49.4892C237.043 49.6595 236.783 49.7939 236.487 49.8745C236.192 49.9552 235.896 50 235.582 50C235.125 50 234.686 49.9193 234.265 49.767C233.844 49.6147 233.486 49.3817 233.208 49.095L234.211 48.0735C234.364 48.2616 234.57 48.4229 234.83 48.5573C235.081 48.6828 235.332 48.7455 235.582 48.7455C235.699 48.7455 235.806 48.7366 235.914 48.7097C236.021 48.6828 236.111 48.6469 236.201 48.5932C236.281 48.5394 236.344 48.4677 236.389 48.3781C236.434 48.2885 236.461 48.181 236.461 48.0555C236.461 47.9301 236.434 47.8315 236.371 47.7509C236.308 47.6702 236.228 47.5896 236.111 47.5269C236.004 47.4552 235.86 47.3925 235.699 47.3387C235.538 47.2849 235.349 47.2222 235.143 47.1505C234.937 47.0878 234.74 47.0072 234.543 46.9176C234.346 46.8279 234.176 46.7115 234.023 46.5681C233.871 46.4247 233.746 46.2545 233.656 46.0573C233.566 45.8602 233.513 45.6093 233.513 45.3226C233.513 44.9731 233.584 44.6685 233.728 44.4176C233.871 44.1667 234.059 43.9606 234.292 43.7993C234.525 43.638 234.785 43.5215 235.081 43.4498C235.376 43.3781 235.672 43.3423 235.968 43.3423C236.326 43.3423 236.694 43.405 237.061 43.5394C237.428 43.6738 237.76 43.862 238.038 44.1219L237.061 45.1523L237.07 45.1344Z" fill="#818C97"/>
<path d="M188.548 16.1648C187.975 15.5376 187.285 15.0447 186.478 14.6863C185.672 14.3279 184.776 14.1487 183.79 14.1487C182.805 14.1487 181.909 14.3279 181.111 14.6863C180.314 15.0447 179.624 15.5376 179.059 16.1648C178.486 16.7921 178.038 17.5268 177.724 18.3691C177.41 19.2114 177.258 20.1254 177.258 21.111C177.258 22.0967 177.41 23.0734 177.724 23.9247C178.038 24.7759 178.486 25.5107 179.068 26.1469C179.651 26.7741 180.34 27.258 181.138 27.6164C181.935 27.9659 182.823 28.1361 183.79 28.1361C184.758 28.1361 185.645 27.9569 186.452 27.6164C187.258 27.267 187.948 26.7831 188.539 26.1469C189.122 25.5196 189.57 24.7849 189.884 23.9247C190.197 23.0734 190.349 22.1326 190.349 21.111C190.349 20.0895 190.197 19.2114 189.884 18.3691C189.57 17.5268 189.122 16.7921 188.548 16.1648Z" fill="#195AAE"/>
<path d="M237.984 5.42114H100.305C100.233 5.42114 100.17 5.46595 100.134 5.52867L97.3566 12.0161L105.394 30.681H101.523L99.7491 26.3262H91.2187L89.3549 30.681L84.6416 41.6756C84.5699 41.8459 84.767 42.0072 84.9194 41.8907L92.1326 36.4695C92.1326 36.4695 92.2043 36.4337 92.2402 36.4337H237.984C238.082 36.4337 238.163 36.353 238.163 36.2545V5.60035C238.163 5.50179 238.082 5.42114 237.984 5.42114ZM123.468 23.6918C123.468 24.8387 123.271 25.8781 122.876 26.7921C122.482 27.715 121.944 28.5036 121.263 29.1398C120.582 29.7849 119.776 30.2778 118.844 30.6272C117.912 30.9767 116.9 31.1469 115.806 31.1469C114.713 31.1469 113.701 30.9677 112.769 30.6272C111.837 30.2867 111.022 29.7849 110.341 29.1398C109.66 28.4946 109.113 27.715 108.728 26.7921C108.342 25.8692 108.154 24.8297 108.154 23.6918V11.6487H111.541V23.5573C111.541 24.1129 111.613 24.6685 111.756 25.215C111.9 25.7616 112.133 26.2455 112.464 26.6756C112.796 27.1057 113.235 27.4552 113.781 27.724C114.328 27.9928 115.009 28.1272 115.815 28.1272C116.622 28.1272 117.294 27.9928 117.841 27.724C118.387 27.4552 118.826 27.1057 119.158 26.6756C119.489 26.2455 119.722 25.7616 119.875 25.215C120.018 24.6685 120.09 24.1129 120.09 23.5573V11.6487H123.477V23.6918H123.468ZM142.419 30.2957C141.201 30.8781 139.776 31.1649 138.145 31.1649C136.658 31.1649 135.287 30.914 134.041 30.4211C132.796 29.9283 131.729 29.2383 130.833 28.3513C129.937 27.4642 129.238 26.4068 128.737 25.1792C128.235 23.9516 127.984 22.5986 127.984 21.1021C127.984 19.6057 128.244 18.2079 128.772 16.9803C129.301 15.7527 130.027 14.7133 130.95 13.853C131.873 12.9928 132.966 12.3297 134.22 11.8638C135.475 11.3978 136.837 11.1649 138.306 11.1649C138.916 11.1649 139.552 11.2186 140.215 11.3351C140.878 11.4516 141.514 11.6308 142.124 11.8728C142.733 12.1147 143.306 12.4104 143.844 12.7688C144.382 13.1272 144.839 13.5573 145.215 14.0591L142.634 16.1021C142.133 15.4211 141.479 14.9283 140.672 14.6057C139.866 14.2921 139.077 14.1308 138.306 14.1308C137.321 14.1308 136.425 14.31 135.618 14.6685C134.812 15.0269 134.122 15.5197 133.539 16.1469C132.957 16.7742 132.509 17.509 132.195 18.3512C131.882 19.1935 131.72 20.1075 131.72 21.0932C131.72 22.1326 131.873 23.0824 132.177 23.9426C132.482 24.8029 132.921 25.5466 133.486 26.1649C134.05 26.7832 134.722 27.267 135.52 27.5986C136.308 27.9391 137.195 28.1093 138.181 28.1093C139.167 28.1093 140.108 27.9032 140.896 27.5C141.685 27.0968 142.321 26.5681 142.805 25.905L145.52 27.8136C144.677 28.871 143.647 29.6864 142.428 30.2688L142.419 30.2957ZM161.909 14.6057H156.075V30.681H152.688V14.6057H146.855V11.6487H161.909V14.6057ZM168.898 30.681H165.511V11.6487H168.898V30.681ZM193.262 25.1882C192.751 26.4158 192.043 27.4731 191.129 28.3602C190.215 29.2473 189.131 29.9373 187.876 30.4301C186.622 30.9229 185.251 31.1738 183.763 31.1738C182.276 31.1738 180.932 30.9229 179.695 30.4301C178.45 29.9373 177.375 29.2473 176.47 28.3602C175.565 27.4731 174.857 26.4158 174.346 25.1882C173.835 23.9606 173.584 22.6075 173.584 21.1111C173.584 19.6147 173.844 18.2168 174.346 16.9892C174.857 15.7616 175.565 14.7222 176.47 13.862C177.375 13.0018 178.45 12.3387 179.695 11.8728C180.941 11.4068 182.294 11.1738 183.763 11.1738C185.233 11.1738 186.622 11.4068 187.876 11.8728C189.131 12.3387 190.215 13.0018 191.129 13.862C192.043 14.7222 192.76 15.7616 193.262 16.9892C193.772 18.2168 194.032 19.5968 194.032 21.1111C194.032 22.6254 193.772 23.9606 193.262 25.1882ZM215.484 30.681H211.183L202.151 15.9767H202.097V30.681H198.71V11.6487H203.199L212.043 25.8961H212.097V11.6487H215.484V30.681ZM232.554 27.7688C232.177 28.5305 231.676 29.1667 231.048 29.6685C230.421 30.1702 229.686 30.5466 228.844 30.7975C228.002 31.0484 227.115 31.1738 226.183 31.1738C224.946 31.1738 223.737 30.9498 222.554 30.4928C221.371 30.0358 220.403 29.3638 219.651 28.4588L222.07 26.2007C222.536 26.8459 223.154 27.3566 223.934 27.733C224.713 28.1093 225.475 28.2975 226.228 28.2975C226.622 28.2975 227.025 28.2527 227.437 28.1452C227.849 28.0466 228.217 27.8853 228.557 27.6523C228.889 27.4194 229.158 27.1326 229.364 26.7742C229.57 26.4247 229.677 25.9946 229.677 25.4749C229.677 24.9552 229.561 24.5609 229.328 24.2204C229.095 23.8799 228.781 23.6021 228.387 23.3602C227.993 23.1183 227.527 22.9122 226.989 22.724C226.452 22.5448 225.887 22.3566 225.296 22.1595C224.722 21.9803 224.149 21.7652 223.575 21.5143C223.002 21.2634 222.491 20.9319 222.034 20.5197C221.577 20.1075 221.201 19.6057 220.914 18.9964C220.627 18.3961 220.484 17.6523 220.484 16.7563C220.484 15.7885 220.69 14.9552 221.093 14.2563C221.496 13.5573 222.025 12.9839 222.679 12.5179C223.333 12.0609 224.077 11.7204 224.91 11.4964C225.744 11.2724 226.595 11.1559 227.446 11.1559C228.414 11.1559 229.391 11.3262 230.394 11.6667C231.389 12.0072 232.249 12.5179 232.984 13.1989L230.78 15.6183C230.421 15.1523 229.919 14.7581 229.256 14.4444C228.602 14.1308 227.948 13.9785 227.276 13.9785C226.882 13.9785 226.487 14.0323 226.093 14.1308C225.699 14.2294 225.34 14.3817 225.018 14.5878C224.695 14.7939 224.427 15.0627 224.229 15.3943C224.023 15.7258 223.916 16.129 223.916 16.586C223.916 17.0161 224.005 17.3835 224.185 17.6882C224.364 17.9928 224.606 18.2527 224.919 18.4677C225.233 18.6828 225.618 18.871 226.066 19.0323C226.514 19.1935 227.007 19.3548 227.545 19.5161C228.154 19.7133 228.781 19.9373 229.435 20.1882C230.09 20.4391 230.69 20.7706 231.237 21.1828C231.783 21.595 232.231 22.1147 232.581 22.7419C232.93 23.3692 233.1 24.1487 233.1 25.0806C233.1 26.1021 232.912 26.9892 232.536 27.7599L232.554 27.7688Z" fill="#195AAE"/>
<path d="M92.6613 23.423H95.1613H98.5753L95.7079 15.8602L94.3459 19.0502L92.4731 23.423H92.6613Z" fill="#195AAE"/>
<path d="M98.3064 0.0359002L90.8961 5.38536C90.8961 5.38536 90.8244 5.42121 90.7885 5.42121H0.179211C0.0806452 5.42121 0 5.50185 0 5.60042V36.2545C0 36.3531 0.0806452 36.4338 0.179211 36.4338H83.5215C83.5932 36.4338 83.6649 36.389 83.6918 36.3262L98.5842 0.250954C98.6559 0.0807031 98.4588 -0.0716267 98.3064 0.0359002ZM26.4964 30.6811H23.2168L18.7545 16.4069H18.7007L14.2384 30.6811H10.9588L5.39427 11.6488H9.10394L12.7867 25.6273H12.8405L17.034 11.6488H20.5287L24.6416 25.6273H24.6953L28.4588 11.6488H32.0609L26.4964 30.6811ZM49.8298 30.6811H36.7384V11.6488H49.3459V14.6058H40.1254V19.4445H48.862V22.294H40.1254V27.6703H49.8298V30.6811ZM67.034 27.7689C66.6577 28.5305 66.1559 29.1667 65.5287 29.6685C64.9014 30.1703 64.1667 30.5467 63.3244 30.7975C62.4821 31.0484 61.595 31.1739 60.6631 31.1739C59.4265 31.1739 58.2169 30.9499 57.0341 30.4929C55.8513 30.0359 54.8835 29.3639 54.1308 28.4588L56.5502 26.2008C57.0161 26.8459 57.6344 27.3567 58.414 27.733C59.1936 28.1094 59.9552 28.2976 60.7079 28.2976C61.1022 28.2976 61.5054 28.2527 61.9176 28.1452C62.3298 28.0467 62.6971 27.8854 63.0287 27.6524C63.3602 27.4194 63.629 27.1327 63.8351 26.7743C64.0412 26.4248 64.1398 25.9947 64.1398 25.475C64.1398 24.9553 64.0233 24.561 63.7903 24.2205C63.5574 23.88 63.2437 23.6022 62.8495 23.3603C62.4552 23.1183 61.9893 22.9122 61.4516 22.7241C60.914 22.5449 60.3495 22.3567 59.7581 22.1596C59.1846 21.9803 58.6111 21.7653 58.0376 21.5144C57.4642 21.2635 56.9534 20.932 56.4875 20.5198C56.0305 20.1076 55.6541 19.6058 55.3763 18.9965C55.0896 18.3961 54.9462 17.6524 54.9462 16.7563C54.9462 15.7886 55.1434 14.9553 55.5466 14.2563C55.9498 13.5574 56.4785 12.9839 57.1326 12.518C57.7867 12.061 58.5305 11.7205 59.3638 11.4965C60.1971 11.2725 61.0484 11.156 61.8996 11.156C62.8674 11.156 63.8441 11.3262 64.8387 11.6667C65.8333 12.0072 66.6936 12.518 67.4373 13.199L65.233 15.6183C64.8746 15.1524 64.3728 14.7581 63.7186 14.4445C63.0645 14.1309 62.4014 13.9786 61.7384 13.9786C61.3441 13.9786 60.9498 14.0323 60.5556 14.1309C60.1613 14.2294 59.8029 14.3818 59.4803 14.5879C59.1577 14.794 58.8889 15.0628 58.6918 15.3943C58.4857 15.7259 58.3781 16.1291 58.3781 16.5861C58.3781 17.0162 58.4677 17.3836 58.647 17.6882C58.8262 17.9929 59.0771 18.2527 59.3907 18.4678C59.7043 18.6829 60.0807 18.871 60.5287 19.0323C60.9767 19.1936 61.4695 19.3549 62.0072 19.5162C62.6165 19.7133 63.2437 19.9373 63.9068 20.1882C64.5609 20.4391 65.1613 20.7707 65.7079 21.1829C66.2545 21.595 66.7025 22.1148 67.052 22.742C67.4014 23.3692 67.5717 24.1488 67.5717 25.0807C67.5717 26.1022 67.3835 26.9893 67.0072 27.7599L67.034 27.7689ZM86.0394 14.6058H80.2061V30.6811H76.819V14.6058H70.9857V11.6488H86.0394V14.6058Z" fill="#FF8324"/>
</g>
<defs>
<clipPath id="clip0_136_4002">
<rect width="238.163" height="50" fill="white"/>
</clipPath>
</defs>
</svg>
